@startuml sqlSession 接口关系UML图
interface SqlSession
interface SqlSessionFactory

class Configuration
class SqlSessionManager
class SqlSessionFactoryBuilder

interface SqlSession{
    Configuration getConfiguration()

    {method} select()
    int insert()
    int update()
    int delete()
}

interface SqlSessionFactory{
    Configuration getConfiguration()
    SqlSession openSession()
}

class SqlSessionFactoryBuilder{
    +SqlSessionFactory build()
}

class SqlSessionManager{
    -SqlSessionFactory sqlSessionFactory
    -SqlSession SqlSessionProxy
}

' 接口层
Configuration <-- SqlSession
Configuration <-- SqlSessionFactory
SqlSession <. SqlSessionFactory
SqlSessionFactoryBuilder ..> SqlSessionFactory
Configuration .> SqlSessionFactoryBuilder
SqlSessionFactory <|..* SqlSessionManager
SqlSession <|..* SqlSessionManager
@enduml
